<svg width="108" height="52" viewBox="0 0 108 52" fill="none" xmlns="http://www.w3.org/2000/svg">
<path d="M8.51982 27.569H27.4779V20.6138H10.8792V13.9302H30.3854C32.1966 13.9302 33.6741 15.3827 33.6741 17.1893V31.0997C33.6741 32.5286 32.5064 33.674 31.0765 33.674H8.04318C3.59858 33.674 0 30.1078 0 25.7033V8.27395C0 3.86938 3.59858 0.303223 8.04318 0.303223H33.6741V6.40821H8.51982C7.22099 6.40821 6.16048 7.45916 6.16048 8.74629V25.2309C6.16048 26.518 7.22099 27.569 8.51982 27.569Z" fill="black"/>
<path d="M74.6173 33.6741H65.0099L51.9486 22.635H47.5869V16.4284H61.886C64.3969 16.4284 66.4245 14.3912 66.4245 11.8683V7.91218C66.4245 6.96461 65.6583 6.20656 64.727 6.20656H45.3V33.6386H39.1348V2.86639C39.1348 1.27921 40.4079 0 41.9757 0H65.2457C69.3126 0 72.6015 3.30464 72.6015 7.39102V11.5129C72.6015 17.6484 67.6505 22.6231 61.5442 22.6231L74.6291 33.6623L74.6173 33.6741Z" fill="black"/>
<path d="M103.697 15.0717C104.489 14.4806 105.009 13.535 105.009 12.4711V8.20368C105.009 3.67623 101.344 0.0117188 96.817 0.0117188H87.6793C83.1519 0.0117188 79.4874 3.67623 79.4874 8.20368V12.3174C79.4874 13.4404 80.043 14.4452 80.8823 15.0599C78.3998 15.6036 76.5439 17.8023 76.5439 20.4503V25.5333C76.5439 29.8716 80.0666 33.3824 84.3931 33.3824H100.103C104.442 33.3824 107.952 29.8716 107.952 25.5333V20.4503C107.952 17.8378 106.132 15.6509 103.697 15.0835V15.0717ZM86.0244 9.03115C86.0244 7.50624 87.2538 6.28868 88.7669 6.28868H96.025C97.5499 6.28868 98.7675 7.51806 98.7675 9.03115V11.3835C98.7675 12.9084 97.5381 14.126 96.025 14.126H88.7669C87.242 14.126 86.0244 12.8966 86.0244 11.3835V9.03115ZM101.628 24.6704C101.628 26.0061 100.541 27.0937 99.2048 27.0937H85.587C84.2512 27.0937 83.1637 26.0061 83.1637 24.6704V22.0461C83.1637 20.7103 84.2512 19.6228 85.587 19.6228H99.2048C100.541 19.6228 101.628 20.7103 101.628 22.0461V24.6704Z" fill="black"/>
<path d="M11.8712 47.8868C11.8712 48.3006 11.824 48.667 11.7176 48.9862C11.6112 49.3054 11.4812 49.6009 11.3038 49.8491C11.1383 50.0974 10.9374 50.3101 10.701 50.4875C10.4764 50.6648 10.2399 50.8066 9.99171 50.913C9.74347 51.0194 9.49522 51.1022 9.24698 51.1613C8.99874 51.2204 8.7505 51.244 8.53772 51.244H0.534896V49.1635H8.53772C8.93964 49.1635 9.24698 49.0453 9.47158 48.8089C9.69618 48.5725 9.80257 48.2651 9.80257 47.8632C9.80257 47.4613 9.77893 47.4967 9.71982 47.3313C9.66072 47.1776 9.57797 47.0357 9.47158 46.9175C9.36519 46.7993 9.23516 46.7047 9.06967 46.6456C8.91599 46.5865 8.73868 46.5511 8.54954 46.5511H3.77385C3.44286 46.5511 3.07641 46.492 2.68632 46.3737C2.29623 46.2555 1.9416 46.0664 1.61061 45.7945C1.27962 45.5345 0.995915 45.1798 0.783137 44.7543C0.558538 44.3287 0.452148 43.7968 0.452148 43.1703C0.452148 42.5437 0.558538 42.0236 0.783137 41.5981C1.00774 41.1725 1.27962 40.8179 1.61061 40.5578C1.9416 40.2859 2.30805 40.0968 2.68632 39.9786C3.07641 39.8604 3.43104 39.8013 3.77385 39.8013H10.831V41.8818H3.77385C3.38376 41.8818 3.07641 42 2.85181 42.2364C2.62721 42.4728 2.52083 42.792 2.52083 43.1821C2.52083 43.5722 2.62721 43.8913 2.85181 44.1278C3.07641 44.3642 3.38376 44.4706 3.77385 44.4706H8.56136C8.78596 44.4706 9.02238 44.506 9.27063 44.5651C9.51887 44.6242 9.76711 44.707 10.0153 44.8252C10.2636 44.9434 10.5 45.0853 10.7246 45.2626C10.9492 45.4399 11.1502 45.6527 11.3157 45.9009C11.493 46.1492 11.623 46.4329 11.7294 46.7638C11.8358 47.083 11.8831 47.4495 11.8831 47.8632L11.8712 47.8868Z" fill="black"/>
<path d="M25.607 46.6218C25.607 47.3192 25.4888 47.9575 25.2523 48.5486C25.0159 49.1396 24.6849 49.6361 24.2594 50.0617C23.8338 50.4872 23.3255 50.8182 22.7463 51.0546C22.1671 51.2911 21.5287 51.4093 20.8431 51.4093H18.0297C17.3441 51.4093 16.7057 51.2911 16.1265 51.0546C15.5355 50.8182 15.039 50.4872 14.6134 50.0617C14.1879 49.6361 13.8569 49.1278 13.6086 48.5486C13.3722 47.9694 13.2422 47.3192 13.2422 46.6218V44.4349C13.2422 43.7492 13.3604 43.0991 13.6086 42.5199C13.8451 41.9288 14.1879 41.4323 14.6134 41.0068C15.039 40.5812 15.5473 40.2502 16.1265 40.0138C16.7057 39.7774 17.3441 39.6592 18.0297 39.6592H20.8431C21.5287 39.6592 22.1671 39.7774 22.7463 40.0138C23.3255 40.2502 23.8338 40.5812 24.2594 41.0068C24.6849 41.4323 25.0159 41.9406 25.2523 42.5199C25.4888 43.1109 25.607 43.7492 25.607 44.4349V46.6218ZM23.5265 44.4349C23.5265 44.0211 23.4555 43.6547 23.3255 43.3237C23.1955 42.9927 23.0063 42.709 22.7699 42.4726C22.5335 42.2362 22.2498 42.047 21.9188 41.917C21.5878 41.787 21.2214 41.716 20.8195 41.716H18.0061C17.6041 41.716 17.2377 41.787 16.9067 41.917C16.5757 42.047 16.292 42.2362 16.0438 42.4726C15.8073 42.709 15.6182 42.9927 15.4882 43.3237C15.3581 43.6547 15.2872 44.033 15.2872 44.4349V46.6218C15.2872 47.0355 15.3581 47.4019 15.4882 47.7329C15.6182 48.0639 15.8073 48.3476 16.0438 48.584C16.2802 48.8205 16.5639 49.0096 16.9067 49.1396C17.2377 49.2697 17.6041 49.3406 18.0061 49.3406H20.7958C21.1977 49.3406 21.5642 49.2697 21.8952 49.1396C22.2262 49.0096 22.5099 48.8205 22.7581 48.584C22.9945 48.3476 23.1837 48.0639 23.3137 47.7329C23.4437 47.4019 23.5146 47.0237 23.5146 46.6218V44.4349H23.5265Z" fill="black"/>
<path d="M38.173 51.2558H28.7044C28.5507 51.2558 28.4207 51.2322 28.2907 51.1731C28.1606 51.1258 28.0543 51.0431 27.9597 50.9485C27.8651 50.8539 27.7942 50.7475 27.7351 50.6175C27.676 50.4875 27.6523 50.3574 27.6523 50.2038V39.8013H29.7328V49.1635H38.1612V51.244L38.173 51.2558Z" fill="black"/>
<path d="M50.3011 50.2036C50.3011 50.3572 50.2775 50.4873 50.2184 50.6173C50.1593 50.7473 50.0884 50.8537 49.9938 50.9483C49.8992 51.0428 49.781 51.1138 49.6628 51.1729C49.5328 51.232 49.4027 51.2556 49.2609 51.2556H44.5798C44.1424 51.2556 43.6932 51.2083 43.244 51.1138C42.7948 51.0192 42.3574 50.8655 41.9319 50.6764C41.5063 50.4754 41.1162 50.2272 40.7379 49.9199C40.3597 49.6125 40.0405 49.2461 39.7568 48.8205C39.4731 48.3949 39.2603 47.9103 39.0948 47.3665C38.9411 46.8227 38.8584 46.2081 38.8584 45.5461V39.8247H40.9389V45.5461C40.9389 46.1371 41.0216 46.6218 41.1871 47.0355C41.3526 47.4374 41.5536 47.7803 41.8018 48.0521C42.0501 48.324 42.322 48.5368 42.6293 48.6905C42.9248 48.8441 43.2085 48.9623 43.4804 49.0333C43.7523 49.1042 43.9887 49.1515 44.1897 49.1751C44.3906 49.1988 44.5325 49.1988 44.5916 49.1988H48.2325V39.8365H50.313V50.239L50.3011 50.2036Z" fill="black"/>
<path d="M63.0444 41.8818H58.4697V51.244H56.3892V41.8818H51.8145V39.8013H63.0444V41.8818Z" fill="black"/>
<path d="M66.6616 51.2557H64.5811V39.813H66.6616V51.2557Z" fill="black"/>
<path d="M81.0953 46.6218C81.0953 47.3192 80.977 47.9575 80.7406 48.5486C80.5042 49.1396 80.1732 49.6361 79.7477 50.0617C79.3221 50.4872 78.8138 50.8182 78.2346 51.0546C77.6553 51.2911 77.017 51.4093 76.3314 51.4093H73.518C72.8324 51.4093 72.194 51.2911 71.6148 51.0546C71.0237 50.8182 70.5273 50.4872 70.1017 50.0617C69.6762 49.6361 69.3452 49.1278 69.0969 48.5486C68.8605 47.9694 68.7305 47.3192 68.7305 46.6218V44.4349C68.7305 43.7492 68.8487 43.0991 69.0969 42.5199C69.3333 41.9288 69.6762 41.4323 70.1017 41.0068C70.5273 40.5812 71.0356 40.2502 71.6148 40.0138C72.194 39.7774 72.8324 39.6592 73.518 39.6592H76.3314C77.017 39.6592 77.6553 39.7774 78.2346 40.0138C78.8138 40.2502 79.3221 40.5812 79.7477 41.0068C80.1732 41.4323 80.5042 41.9406 80.7406 42.5199C80.977 43.1109 81.0953 43.7492 81.0953 44.4349V46.6218ZM79.0148 44.4349C79.0148 44.0211 78.9438 43.6547 78.8138 43.3237C78.6838 42.9927 78.4946 42.709 78.2582 42.4726C78.0218 42.2362 77.7381 42.047 77.4071 41.917C77.0761 41.787 76.7097 41.716 76.3077 41.716H73.4943C73.0924 41.716 72.726 41.787 72.395 41.917C72.064 42.047 71.7803 42.2362 71.5321 42.4726C71.2956 42.709 71.1065 42.9927 70.9765 43.3237C70.8464 43.6547 70.7755 44.033 70.7755 44.4349V46.6218C70.7755 47.0355 70.8464 47.4019 70.9765 47.7329C71.1065 48.0639 71.2956 48.3476 71.5321 48.584C71.7685 48.8205 72.0522 49.0096 72.395 49.1396C72.726 49.2697 73.0924 49.3406 73.4943 49.3406H76.2841C76.686 49.3406 77.0525 49.2697 77.3835 49.1396C77.7144 49.0096 77.9981 48.8205 78.2464 48.584C78.4946 48.3476 78.6719 48.0639 78.802 47.7329C78.932 47.4019 79.0029 47.0237 79.0029 46.6218V44.4349H79.0148Z" fill="black"/>
<path d="M94.5833 50.3692C94.5833 50.5229 94.5596 50.6529 94.5005 50.7829C94.4414 50.913 94.3705 51.0194 94.2759 51.1139C94.1814 51.2085 94.075 51.2794 93.9449 51.3385C93.8149 51.3858 93.6849 51.4213 93.543 51.4213C93.4012 51.4213 93.283 51.3976 93.1529 51.3504C93.0229 51.3031 92.9047 51.2203 92.8101 51.1139L85.2328 43.1939V51.2558H83.1523V40.6996C83.1523 40.4868 83.2114 40.2977 83.3297 40.1204C83.4479 39.9431 83.6015 39.813 83.7907 39.7303C83.9916 39.6476 84.1926 39.6357 84.3936 39.6712C84.6063 39.7067 84.7836 39.813 84.9255 39.9667L92.5028 47.875V39.813H94.5833V50.3692Z" fill="black"/>
<path d="M107.987 47.8868C107.987 48.3006 107.94 48.667 107.834 48.9862C107.727 49.3172 107.597 49.6009 107.42 49.8491C107.255 50.0974 107.054 50.3101 106.817 50.4875C106.593 50.6648 106.356 50.8066 106.108 50.913C105.86 51.0194 105.611 51.1022 105.363 51.1613C105.115 51.2204 104.867 51.244 104.654 51.244H96.6511V49.1635H104.654C105.056 49.1635 105.363 49.0453 105.588 48.8089C105.812 48.5725 105.919 48.2651 105.919 47.8632C105.919 47.4613 105.895 47.4967 105.836 47.3313C105.777 47.1776 105.694 47.0357 105.588 46.9175C105.481 46.7993 105.351 46.7047 105.186 46.6456C105.032 46.5865 104.855 46.5511 104.666 46.5511H99.8901C99.5591 46.5511 99.1926 46.492 98.8025 46.3737C98.4124 46.2555 98.0578 46.0664 97.7268 45.7945C97.3958 45.5345 97.1121 45.1798 96.8993 44.7543C96.6747 44.3287 96.5684 43.7968 96.5684 43.1703C96.5684 42.5437 96.6747 42.0236 96.8993 41.5981C97.1239 41.1725 97.3958 40.8179 97.7268 40.5578C98.0578 40.2859 98.4243 40.0968 98.8025 39.9786C99.1926 39.8604 99.5473 39.8013 99.8901 39.8013H106.947V41.8818H99.8901C99.5 41.8818 99.1926 42 98.968 42.2364C98.7434 42.4728 98.637 42.792 98.637 43.1821C98.637 43.5722 98.7434 43.8913 98.968 44.1278C99.1926 44.3642 99.5 44.4706 99.8901 44.4706H104.678C104.902 44.4706 105.139 44.506 105.387 44.5651C105.635 44.6242 105.883 44.707 106.132 44.8252C106.38 44.9434 106.616 45.0853 106.841 45.2626C107.065 45.4399 107.266 45.6527 107.432 45.9009C107.609 46.1492 107.739 46.4329 107.846 46.7638C107.952 47.083 107.999 47.4495 107.999 47.8632L107.987 47.8868Z" fill="black"/>
</svg>
